<svg xmlns="http://www.w3.org/2000/svg" viewBox="0 0 276 276" role="img" aria-labelledby="t d"><title id="t">Star Battle 6 by 6, after the step</title><desc id="d">Region A has only one square left where a star can go: row 1, column 2.</desc><rect width="276" height="276" rx="16" fill="#fffbf5"/><rect x="12" y="12" width="42" height="42" fill="#ffe3d6" stroke="#cfc3b3" stroke-width="1"/><text x="16" y="24" font-family="Figtree, system-ui, sans-serif" font-weight="700" font-size="10" fill="#2a2540" opacity=".7">A</text><rect x="54" y="12" width="42" height="42" fill="#ffe3d6" stroke="#cfc3b3" stroke-width="1"/><rect x="96" y="12" width="42" height="42" fill="#e0f0da" stroke="#cfc3b3" stroke-width="1"/><text x="100" y="24" font-family="Figtree, system-ui, sans-serif" font-weight="700" font-size="10" fill="#2a2540" opacity=".7">B</text><rect x="138" y="12" width="42" height="42" fill="#e0f0da" stroke="#cfc3b3" stroke-width="1"/><rect x="180" y="12" width="42" height="42" fill="#e0f0da" stroke="#cfc3b3" stroke-width="1"/><rect x="222" y="12" width="42" height="42" fill="#e0f0da" stroke="#cfc3b3" stroke-width="1"/><rect x="12" y="54" width="42" height="42" fill="#fff2c2" stroke="#cfc3b3" stroke-width="1"/><text x="16" y="66" font-family="Figtree, system-ui, sans-serif" font-weight="700" font-size="10" fill="#2a2540" opacity=".7">D</text><rect x="54" y="54" width="42" height="42" fill="#fff2c2" stroke="#cfc3b3" stroke-width="1"/><rect x="96" y="54" width="42" height="42" fill="#e0f0da" stroke="#cfc3b3" stroke-width="1"/><rect x="138" y="54" width="42" height="42" fill="#e0f0da" stroke="#cfc3b3" stroke-width="1"/><rect x="180" y="54" width="42" height="42" fill="#e0f0da" stroke="#cfc3b3" stroke-width="1"/><rect x="222" y="54" width="42" height="42" fill="#dbe8ff" stroke="#cfc3b3" stroke-width="1"/><text x="226" y="66" font-family="Figtree, system-ui, sans-serif" font-weight="700" font-size="10" fill="#2a2540" opacity=".7">C</text><rect x="12" y="96" width="42" height="42" fill="#fff2c2" stroke="#cfc3b3" stroke-width="1"/><rect x="54" y="96" width="42" height="42" fill="#e0f0da" stroke="#cfc3b3" stroke-width="1"/><rect x="96" y="96" width="42" height="42" fill="#e0f0da" stroke="#cfc3b3" stroke-width="1"/><rect x="138" y="96" width="42" height="42" fill="#d7f1f1" stroke="#cfc3b3" stroke-width="1"/><text x="142" y="108" font-family="Figtree, system-ui, sans-serif" font-weight="700" font-size="10" fill="#2a2540" opacity=".7">F</text><rect x="180" y="96" width="42" height="42" fill="#d7f1f1" stroke="#cfc3b3" stroke-width="1"/><rect x="222" y="96" width="42" height="42" fill="#dbe8ff" stroke="#cfc3b3" stroke-width="1"/><rect x="12" y="138" width="42" height="42" fill="#fff2c2" stroke="#cfc3b3" stroke-width="1"/><rect x="54" y="138" width="42" height="42" fill="#fff2c2" stroke="#cfc3b3" stroke-width="1"/><rect x="96" y="138" width="42" height="42" fill="#e0f0da" stroke="#cfc3b3" stroke-width="1"/><rect x="138" y="138" width="42" height="42" fill="#d7f1f1" stroke="#cfc3b3" stroke-width="1"/><rect x="180" y="138" width="42" height="42" fill="#d7f1f1" stroke="#cfc3b3" stroke-width="1"/><rect x="222" y="138" width="42" height="42" fill="#d7f1f1" stroke="#cfc3b3" stroke-width="1"/><rect x="12" y="180" width="42" height="42" fill="#fff2c2" stroke="#cfc3b3" stroke-width="1"/><rect x="54" y="180" width="42" height="42" fill="#efdcff" stroke="#cfc3b3" stroke-width="1"/><text x="58" y="192" font-family="Figtree, system-ui, sans-serif" font-weight="700" font-size="10" fill="#2a2540" opacity=".7">E</text><rect x="96" y="180" width="42" height="42" fill="#efdcff" stroke="#cfc3b3" stroke-width="1"/><rect x="138" y="180" width="42" height="42" fill="#d7f1f1" stroke="#cfc3b3" stroke-width="1"/><rect x="180" y="180" width="42" height="42" fill="#d7f1f1" stroke="#cfc3b3" stroke-width="1"/><rect x="222" y="180" width="42" height="42" fill="#d7f1f1" stroke="#cfc3b3" stroke-width="1"/><rect x="12" y="222" width="42" height="42" fill="#fff2c2" stroke="#cfc3b3" stroke-width="1"/><rect x="54" y="222" width="42" height="42" fill="#efdcff" stroke="#cfc3b3" stroke-width="1"/><rect x="96" y="222" width="42" height="42" fill="#d7f1f1" stroke="#cfc3b3" stroke-width="1"/><rect x="138" y="222" width="42" height="42" fill="#d7f1f1" stroke="#cfc3b3" stroke-width="1"/><rect x="180" y="222" width="42" height="42" fill="#d7f1f1" stroke="#cfc3b3" stroke-width="1"/><rect x="222" y="222" width="42" height="42" fill="#d7f1f1" stroke="#cfc3b3" stroke-width="1"/><line x1="12" y1="54" x2="54" y2="54" stroke="#2a2540" stroke-width="3"/><line x1="96" y1="12" x2="96" y2="54" stroke="#2a2540" stroke-width="3"/><line x1="54" y1="54" x2="96" y2="54" stroke="#2a2540" stroke-width="3"/><line x1="222" y1="54" x2="264" y2="54" stroke="#2a2540" stroke-width="3"/><line x1="96" y1="54" x2="96" y2="96" stroke="#2a2540" stroke-width="3"/><line x1="54" y1="96" x2="96" y2="96" stroke="#2a2540" stroke-width="3"/><line x1="138" y1="96" x2="180" y2="96" stroke="#2a2540" stroke-width="3"/><line x1="222" y1="54" x2="222" y2="96" stroke="#2a2540" stroke-width="3"/><line x1="180" y1="96" x2="222" y2="96" stroke="#2a2540" stroke-width="3"/><line x1="54" y1="96" x2="54" y2="138" stroke="#2a2540" stroke-width="3"/><line x1="54" y1="138" x2="96" y2="138" stroke="#2a2540" stroke-width="3"/><line x1="138" y1="96" x2="138" y2="138" stroke="#2a2540" stroke-width="3"/><line x1="222" y1="96" x2="222" y2="138" stroke="#2a2540" stroke-width="3"/><line x1="222" y1="138" x2="264" y2="138" stroke="#2a2540" stroke-width="3"/><line x1="96" y1="138" x2="96" y2="180" stroke="#2a2540" stroke-width="3"/><line x1="54" y1="180" x2="96" y2="180" stroke="#2a2540" stroke-width="3"/><line x1="138" y1="138" x2="138" y2="180" stroke="#2a2540" stroke-width="3"/><line x1="96" y1="180" x2="138" y2="180" stroke="#2a2540" stroke-width="3"/><line x1="54" y1="180" x2="54" y2="222" stroke="#2a2540" stroke-width="3"/><line x1="138" y1="180" x2="138" y2="222" stroke="#2a2540" stroke-width="3"/><line x1="96" y1="222" x2="138" y2="222" stroke="#2a2540" stroke-width="3"/><line x1="54" y1="222" x2="54" y2="264" stroke="#2a2540" stroke-width="3"/><line x1="96" y1="222" x2="96" y2="264" stroke="#2a2540" stroke-width="3"/><rect x="12" y="12" width="252" height="252" fill="none" stroke="#2a2540" stroke-width="3"/><path d="M111 27L123 39M123 27L111 39" stroke="#b23a2b" stroke-width="2.5" stroke-linecap="round"/><path d="M153 27L165 39M165 27L153 39" stroke="#b23a2b" stroke-width="2.5" stroke-linecap="round"/><path d="M195 27L207 39M207 27L195 39" stroke="#b23a2b" stroke-width="2.5" stroke-linecap="round"/><path d="M237 27L249 39M249 27L237 39" stroke="#b23a2b" stroke-width="2.5" stroke-linecap="round"/><path d="M237 153L249 165M249 153L237 165" stroke="#b23a2b" stroke-width="2.5" stroke-linecap="round"/><path d="M237 195L249 207M249 195L237 207" stroke="#b23a2b" stroke-width="2.5" stroke-linecap="round"/><path d="M237 237L249 249M249 237L237 249" stroke="#b23a2b" stroke-width="2.5" stroke-linecap="round"/><path d="M69 111L81 123M81 111L69 123" stroke="#b23a2b" stroke-width="2.5" stroke-linecap="round"/><path d="M69 195L81 207M81 195L69 207" stroke="#b23a2b" stroke-width="2.5" stroke-linecap="round"/><path d="M69 237L81 249M81 237L69 249" stroke="#b23a2b" stroke-width="2.5" stroke-linecap="round"/><path d="M27 69L39 81M39 69L27 81" stroke="#b23a2b" stroke-width="2.5" stroke-linecap="round"/><path d="M69 69L81 81M81 69L69 81" stroke="#b23a2b" stroke-width="2.5" stroke-linecap="round"/><path d="M237 69L249 81M249 69L237 81" stroke="#b23a2b" stroke-width="2.5" stroke-linecap="round"/><polygon points="117.0,187.7 120.8,196.8 130.6,197.6 123.1,204.0 125.4,213.6 117.0,208.4 108.6,213.6 110.9,204.0 103.4,197.6 113.2,196.8" fill="#f2b21a" stroke="#2a2540" stroke-width="1.6" stroke-linejoin="round"/><polygon points="243.0,103.7 246.8,112.8 256.6,113.6 249.1,120.0 251.4,129.6 243.0,124.4 234.6,129.6 236.9,120.0 229.4,113.6 239.2,112.8" fill="#f2b21a" stroke="#2a2540" stroke-width="1.6" stroke-linejoin="round"/><polygon points="159.0,61.7 162.8,70.8 172.6,71.6 165.1,78.0 167.4,87.6 159.0,82.4 150.6,87.6 152.9,78.0 145.4,71.6 155.2,70.8" fill="#f2b21a" stroke="#2a2540" stroke-width="1.6" stroke-linejoin="round"/><polygon points="201.0,229.7 204.8,238.8 214.6,239.6 207.1,246.0 209.4,255.6 201.0,250.4 192.6,255.6 194.9,246.0 187.4,239.6 197.2,238.8" fill="#f2b21a" stroke="#2a2540" stroke-width="1.6" stroke-linejoin="round"/><polygon points="33.0,145.7 36.8,154.8 46.6,155.6 39.1,162.0 41.4,171.6 33.0,166.4 24.6,171.6 26.9,162.0 19.4,155.6 29.2,154.8" fill="#f2b21a" stroke="#2a2540" stroke-width="1.6" stroke-linejoin="round"/><polygon points="75.0,19.7 78.8,28.8 88.6,29.6 81.1,36.0 83.4,45.6 75.0,40.4 66.6,45.6 68.9,36.0 61.4,29.6 71.2,28.8" fill="#f2b21a" stroke="#2a2540" stroke-width="1.6" stroke-linejoin="round"/><rect x="14" y="14" width="38" height="38" rx="7" fill="none" stroke="#ff7a6b" stroke-width="3.5"/><rect x="56" y="14" width="38" height="38" rx="7" fill="none" stroke="#ff7a6b" stroke-width="3.5"/></svg>